HIERARCHY
ROOT Hips
{
	OFFSET -209.892197 83.335617 436.453888
	CHANNELS 6 Xposition Yposition Zposition Zrotation Yrotation Xrotation 
	JOINT LeftUpLeg
	{
		OFFSET 0.103458 1.857834 10.548502
		CHANNELS 3 Zrotation Yrotation Xrotation
		JOINT LeftLeg
		{
			OFFSET 43.500008 -0.000027 -0.000002
			CHANNELS 3 Zrotation Yrotation Xrotation
			JOINT LeftFoot
			{
				OFFSET 42.372200 -0.000011 -0.000010
				CHANNELS 3 Zrotation Yrotation Xrotation
				JOINT LeftToe
				{
					OFFSET 17.300005 0.000001 0.000004
					CHANNELS 3 Zrotation Yrotation Xrotation
					End Site
					{
						OFFSET 0.000000 0.000000 0.000000
					}
				}
			}
		}
	}
	JOINT RightUpLeg
	{
		OFFSET 0.103456 1.857835 -10.548497
		CHANNELS 3 Zrotation Yrotation Xrotation
		JOINT RightLeg
		{
			OFFSET 43.500038 -0.000031 0.000015
			CHANNELS 3 Zrotation Yrotation Xrotation
			JOINT RightFoot
			{
				OFFSET 42.372269 -0.000019 0.000010
				CHANNELS 3 Zrotation Yrotation Xrotation
				JOINT RightToe
				{
					OFFSET 17.299995 -0.000004 0.000006
					CHANNELS 3 Zrotation Yrotation Xrotation
					End Site
					{
						OFFSET 0.000000 0.000000 0.000000
					}
				}
			}
		}
	}
	JOINT Spine
	{
		OFFSET 6.901966 -2.603724 0.000006
		CHANNELS 3 Zrotation Yrotation Xrotation
		JOINT Spine1
		{
			OFFSET 12.588104 -0.000002 0.000002
			CHANNELS 3 Zrotation Yrotation Xrotation
			JOINT Spine2
			{
				OFFSET 12.343198 0.000013 -0.000014
				CHANNELS 3 Zrotation Yrotation Xrotation
				JOINT Neck
				{
					OFFSET 25.832897 -0.000017 -0.000002
					CHANNELS 3 Zrotation Yrotation Xrotation
					JOINT Head
					{
						OFFSET 11.766611 0.000019 0.000005
						CHANNELS 3 Zrotation Yrotation Xrotation
						End Site
						{
							OFFSET 0.000000 0.000000 0.000000
						}
					}
				}
				JOINT LeftShoulder
				{
					OFFSET 19.745913 -1.480379 6.000116
					CHANNELS 3 Zrotation Yrotation Xrotation
					JOINT LeftArm
					{
						OFFSET 11.284129 0.000004 -0.000028
						CHANNELS 3 Zrotation Yrotation Xrotation
						JOINT LeftForeArm
						{
							OFFSET 33.000038 0.000006 0.000033
							CHANNELS 3 Zrotation Yrotation Xrotation
							JOINT LeftHand
							{
								OFFSET 25.200012 -0.000007 -0.000007
								CHANNELS 3 Zrotation Yrotation Xrotation
								End Site
								{
									OFFSET 0.000000 0.000000 0.000000
								}
							}
						}
					}
				}
				JOINT RightShoulder
				{
					OFFSET 19.746098 -1.480396 -6.000068
					CHANNELS 3 Zrotation Yrotation Xrotation
					JOINT RightArm
					{
						OFFSET 11.284148 -0.000029 -0.000023
						CHANNELS 3 Zrotation Yrotation Xrotation
						JOINT RightForeArm
						{
							OFFSET 33.000088 0.000013 0.000010
							CHANNELS 3 Zrotation Yrotation Xrotation
							JOINT RightHand
							{
								OFFSET 25.199785 0.000162 0.000438
								CHANNELS 3 Zrotation Yrotation Xrotation
								End Site
								{
									OFFSET 0.000000 0.000000 0.000000
								}
							}
						}
					}
				}
			}
		}
	}
}
MOTION
Frames: 11
Frame Time: 0.033333
-209.892197 83.335617 436.453888 87.188102 -7.272781 135.259206 140.204755 0.148692 177.198357 -55.989376 4.408537 9.619395 90.910795 -6.690706 -0.469306 21.454548 0.003097 -0.000001 136.586763 11.968797 167.865546 -53.657932 -11.016755 -1.569729 87.969421 2.751116 7.789470 21.454557 -0.003109 -0.000018 10.719330 -0.461237 -0.296494 11.428651 -0.890936 -0.637129 11.110528 -0.894636 -0.631729 2.569342 0.153478 27.485801 -25.050627 -22.334179 39.331627 169.492114 -73.144264 9.433881 -56.380626 36.275705 -5.456952 -41.807625 -14.018440 1.441769 5.107851 -10.357121 29.818885 155.835301 77.213752 -23.189486 -28.381034 -43.724556 -2.475871 -26.914661 14.381920 -1.159802 8.321799 8.470258 4.440851 
-210.030807 83.207008 439.674591 86.671836 -5.617803 140.217404 141.287108 -0.894705 179.423482 -56.680202 4.991310 11.730646 91.934831 -8.139447 -0.598294 21.454551 0.003081 -0.000002 139.886208 13.049603 158.843549 -44.555489 -9.957638 -5.217405 86.041334 5.808763 9.965475 21.454562 -0.003110 -0.000016 10.839712 0.040884 -0.383134 11.666201 0.120144 -0.760169 11.348130 0.115701 -0.760876 2.048333 0.808038 26.976177 -24.440860 -22.358660 38.840902 166.461286 -73.464326 12.528704 -58.838398 36.118361 -4.701465 -43.414335 -13.830032 1.473887 6.021168 -10.607654 27.328576 156.682695 77.335876 -22.320918 -29.581799 -42.639751 -0.944432 -26.340908 14.241001 -1.141073 8.634465 8.630056 4.775043 
-210.314804 82.793617 442.821106 86.684806 -4.459300 145.760608 141.806776 -1.123898 -176.985788 -57.476841 4.834775 13.489598 92.900838 -9.382969 -1.098045 21.454553 0.003098 0.000001 143.514555 14.936201 147.043987 -39.436197 -6.627631 -7.365192 83.525728 8.386568 14.063298 21.454557 -0.003109 -0.000018 10.911560 0.406217 -0.568438 11.806471 0.868291 -1.092423 11.488391 0.861815 -1.097641 1.820428 1.782969 26.283411 -23.969762 -22.499188 38.422669 163.185199 -73.788637 15.869545 -60.696981 35.987270 -3.149415 -44.806656 -13.168328 1.470052 6.197264 -11.794681 23.870744 158.016973 77.364009 -20.962453 -31.001744 -41.825988 1.560098 -25.831892 14.068950 -1.121669 8.908506 8.915236 5.230726 
-210.937393 81.679947 446.311707 87.066067 -3.906636 152.464002 141.022069 -0.579192 -173.087157 -59.401295 4.972328 15.640278 93.981142 -10.924676 -1.892782 21.454548 0.003087 -0.000000 146.609368 17.421999 142.920520 -39.402600 -4.591879 -8.625901 85.847500 10.942639 23.973691 21.454562 -0.003109 -0.000018 10.943867 0.635422 -0.881248 11.865656 1.357847 -1.692689 11.547607 1.347738 -1.700846 1.229335 2.984667 25.367022 -23.465917 -22.830440 37.933262 158.354193 -73.722514 20.815131 -61.794176 35.435530 -0.826573 -46.042305 -12.334853 1.451098 7.516834 -11.990904 20.723067 160.906812 77.103519 -18.035029 -32.348496 -40.968731 3.475710 -25.587388 14.051609 -1.116590 10.034391 9.126678 7.081184 
-211.840698 80.506142 449.783600 87.302126 -3.369936 159.759204 139.163615 -0.296603 -169.937770 -61.280765 5.490261 18.792463 93.932627 -13.172819 -2.488357 21.454553 0.003090 -0.000002 149.162575 19.302900 148.120029 -42.549469 -4.089069 -10.277270 92.799205 10.955227 27.108891 21.454558 -0.003109 -0.000018 10.990632 0.833145 -1.178521 11.952224 1.783564 -2.264790 11.634221 1.769993 -2.275503 0.298598 4.663876 24.352751 -22.887563 -23.171408 37.532791 152.689903 -73.920549 26.589730 -62.937461 35.104389 0.756247 -47.001803 -11.375697 1.416052 8.676037 -11.393573 17.157737 163.872002 76.698216 -15.033533 -34.073454 -40.378842 5.437676 -25.641247 14.297831 -1.133181 10.573217 9.924277 8.295833 
-213.007401 79.497391 453.028809 87.031554 -2.946890 166.428802 136.264542 -0.624298 -168.253104 -62.409590 6.297287 22.598837 92.743143 -15.953857 -3.091141 21.454548 0.003086 -0.000001 150.434425 20.548902 159.675056 -46.484543 -5.960562 -11.929880 99.355839 10.275387 24.924323 21.454557 -0.003108 -0.000017 10.990234 0.973649 -1.246640 11.947937 2.070818 -2.386278 11.629943 2.056508 -2.398727 -0.426957 6.358593 23.188451 -23.131168 -23.724093 37.397000 146.813304 -73.763666 32.592293 -64.187181 34.938914 1.460281 -47.188681 -10.608395 1.370589 10.445454 -9.905077 13.248773 166.363696 76.220465 -12.513109 -36.113587 -39.548055 6.751647 -25.984394 14.810782 -1.171517 11.255397 9.807356 9.601847 
-214.321899 78.566887 456.122803 86.256519 -2.902915 171.425508 132.544943 -1.863800 -168.006125 -63.145188 6.414324 26.148531 90.917597 -18.745712 -4.438005 21.454550 0.003090 -0.000000 149.653434 20.656206 168.806923 -51.079116 -8.754414 -12.901950 103.993899 9.832168 22.923351 21.454560 -0.003108 -0.000017 10.915295 0.949665 -1.140909 11.800426 2.010717 -2.179183 11.482338 1.997660 -2.191273 -1.643577 6.769978 22.395430 -22.732791 -23.382188 36.480826 144.353999 -73.361949 35.125812 -65.505803 35.128517 1.281194 -46.779511 -9.948881 1.314346 11.917747 -8.909342 8.528705 164.517319 76.018503 -14.405718 -38.759695 -38.793111 8.543244 -26.187896 15.098282 -1.193217 11.629251 10.190390 12.066491 
-215.495605 77.996033 458.876587 85.898829 -2.846321 175.211701 129.552815 -3.551498 -168.347607 -63.095614 5.938671 28.658965 89.202475 -21.597227 -9.686472 21.454551 0.003090 0.000000 148.767476 19.605802 170.479596 -55.685494 -8.871708 -11.745403 106.295400 8.515315 21.635927 21.454560 -0.003110 -0.000018 11.018507 0.875415 -0.953131 12.011098 1.845023 -1.810321 11.692998 1.834195 -1.821420 -3.088692 6.173938 21.857944 -22.410199 -22.342095 35.088242 143.825110 -72.757914 35.708335 -66.795480 35.679467 -0.621354 -45.889524 -9.342323 1.247595 13.367583 -8.020003 3.584355 160.367501 76.078561 -18.635324 -42.151467 -37.395125 10.863519 -26.978532 15.100971 -1.206817 12.438087 9.467936 15.250991 
-216.346695 77.517967 461.165802 85.880599 -2.501940 179.806793 127.647766 -4.332505 -168.023063 -62.077219 4.744035 28.795982 89.549688 -23.434760 -19.340418 21.454548 0.003078 -0.000004 149.330461 18.997604 172.252221 -59.058105 -8.318969 -9.908383 108.210407 6.854771 20.850629 21.454557 -0.003106 -0.000016 11.156900 0.982049 -1.087450 12.284240 2.073987 -2.064638 11.966136 2.061621 -2.077113 -3.857517 4.852695 21.654012 -22.641736 -21.242278 33.838099 146.367716 -71.951262 33.173074 -68.191133 36.413880 -3.933583 -44.470832 -8.236751 1.132828 14.944987 -7.101125 -1.306321 153.027096 76.593072 -26.081289 -46.237054 -36.069908 13.621819 -27.664503 15.165750 -1.222974 11.736960 8.833965 16.732867 
-216.990097 77.390457 463.080200 85.990948 -1.956580 -174.473002 126.426501 -4.327606 -168.557539 -60.697022 3.756879 26.439541 89.705492 -22.310398 -22.338197 21.454553 0.003094 0.000002 151.426168 18.728606 174.917142 -60.591858 -7.719594 -7.799974 109.666002 5.124370 20.558924 21.454562 -0.003111 -0.000018 11.233849 1.166514 -1.338372 12.430272 2.470061 -2.544016 12.112178 2.454793 -2.558872 -4.605515 5.519322 20.841730 -21.200576 -21.220517 32.887528 145.031117 -70.686803 34.627983 -68.602652 37.250376 -6.905448 -43.221857 -7.748069 1.065214 16.481899 -5.315634 -6.527188 150.612775 76.665144 -28.531522 -50.203960 -34.592227 14.767894 -28.843800 15.412535 -1.260247 11.464597 8.019931 18.670633 
-217.560196 77.302597 464.695099 86.077637 -1.588953 -169.041895 125.821073 -4.549809 -170.575860 -59.046876 3.978942 21.937454 90.613675 -18.483839 -19.595193 21.454555 0.003089 -0.000001 153.273502 18.373306 176.896367 -61.842828 -6.978987 -5.476812 110.653395 3.351218 20.641781 21.454560 -0.003109 -0.000018 11.240900 1.252653 -1.506137 12.438907 2.659974 -2.869363 12.120884 2.642741 -2.885357 -5.045719 6.814297 19.768471 -20.432750 -21.672035 32.403456 143.285921 -69.803195 36.475929 -69.489621 38.120802 -9.651751 -42.147472 -7.900391 1.046224 17.516741 -4.152505 -13.996063 151.361254 76.813489 -27.761487 -53.824855 -33.478879 15.752225 -31.720133 15.283653 -1.308684 10.623897 7.926284 19.878595 
